<svg xmlns="http://www.w3.org/2000/svg" width="105" height="28" viewBox="0 0 105 28" fill="none">
<path d="M46.4507 16.7692C46.4507 19.1085 44.6804 20.8906 41.2822 20.8906C38.3976 20.8906 36.1097 19.3891 35.9951 16.7021H38.2712C38.4174 18.1641 39.6305 18.9544 41.3849 18.9544C43.1393 18.9544 44.1944 18.0416 44.1944 16.868C44.1944 15.813 43.4041 15.1808 41.3928 14.588L40.1599 14.2403C37.8365 13.5725 36.4021 12.5451 36.4021 10.4469C36.4021 8.09185 38.5675 6.55078 41.4047 6.55078C44.2418 6.55078 46.2373 8.17088 46.3282 10.522H44.0956C43.9138 9.25753 42.922 8.48304 41.3335 8.48304C39.745 8.48304 38.6703 9.26543 38.6703 10.4272C38.6703 11.4348 39.5356 12.0196 41.298 12.5293L42.3728 12.8336C45.0519 13.616 46.4507 14.7303 46.4507 16.7732V16.7692ZM50.8486 17.6899V12.3318H52.7532V10.3481H50.8486V8.06024H48.699V10.3481H46.996V12.3318H48.699V17.7136C48.699 20.0489 50.1611 20.7246 51.5441 20.7958C52.2356 20.8313 52.9469 20.7365 52.9469 20.7365V18.9662C52.7058 18.9781 52.5517 18.9979 52.2554 18.9979C51.7338 18.9979 50.8447 18.903 50.8447 17.6899H50.8486ZM73.9923 15.7419C73.9923 18.9425 71.7676 20.8788 69.1755 20.8788C68.0888 20.8788 66.9429 20.4955 66.1684 19.7961V24.4311H64.0188V10.6721H66.1684V11.6244C66.9429 10.925 68.0888 10.5417 69.1755 10.5417C71.6451 10.5417 73.9923 12.5491 73.9923 15.7419ZM71.8585 15.7102C71.8585 13.5844 70.6494 12.4187 69.1597 12.4187C67.67 12.4187 66.1645 13.5844 66.1645 15.7102C66.1645 17.8361 67.67 19.0018 69.1597 19.0018C70.6494 19.0018 71.8585 17.8361 71.8585 15.7102Z" fill="#333"/>
<path d="M66.1874 24.451H63.9983V10.6526H66.1874V11.5812C66.9421 10.9173 68.0525 10.5222 69.1747 10.5222C70.4115 10.5222 71.6325 11.0359 72.5255 11.9328C73.4857 12.897 74.0152 14.2523 74.0152 15.746C74.0152 17.2396 73.5173 18.5792 72.5729 19.5275C71.6918 20.4127 70.4866 20.9026 69.1786 20.9026C68.0564 20.9026 66.9461 20.5075 66.1913 19.8437V24.451H66.1874ZM64.0417 24.4115H66.1518V19.7528L66.1834 19.7844C66.9303 20.4601 68.0485 20.8631 69.1786 20.8631C71.5614 20.8631 73.9757 19.1047 73.9757 15.746C73.9757 12.3873 71.5376 10.5656 69.1786 10.5656C68.0525 10.5656 66.9342 10.9687 66.1834 11.6444L66.1518 11.676V10.696H64.0417V24.4155V24.4115ZM41.2814 20.9145C39.8154 20.9145 38.5351 20.5352 37.5868 19.8239C36.587 19.0731 36.0299 17.9944 35.9785 16.7062V16.6864H38.2901V16.7062C38.4324 18.105 39.5862 18.9388 41.3881 18.9388C43.0319 18.9388 44.1778 18.0892 44.1778 16.8722C44.1778 15.8369 43.3954 15.2046 41.3881 14.6119L40.1552 14.2642C38.8828 13.9007 38.0056 13.466 37.3971 12.9009C36.7135 12.2687 36.3816 11.4666 36.3816 10.451C36.3816 9.30512 36.8794 8.32121 37.8278 7.606C38.7366 6.9145 40.005 6.53516 41.4039 6.53516C42.8027 6.53516 44.0197 6.91845 44.9128 7.64156C45.8058 8.36468 46.3037 9.36044 46.3471 10.5261V10.5459H44.075V10.5301C43.8893 9.24585 42.8896 8.50693 41.3327 8.50693C39.7759 8.50693 38.6892 9.26166 38.6892 10.4313C38.6892 11.3717 39.4479 11.9763 41.3051 12.5137L42.3799 12.818C45.2486 13.6557 46.4736 14.8411 46.4736 16.7734C46.4736 17.9746 46.0192 18.9941 45.1577 19.7251C44.245 20.5035 42.9054 20.9145 41.2853 20.9145H41.2814ZM36.018 16.722C36.1326 19.243 38.1953 20.871 41.2814 20.871C44.3675 20.871 46.4301 19.2983 46.4301 16.7694C46.4301 14.853 45.2131 13.6833 42.368 12.8496L41.2932 12.5453C39.4163 12 38.6497 11.3875 38.6497 10.4234C38.6497 9.23005 39.7047 8.45951 41.3327 8.45951C42.9607 8.45951 43.917 9.20239 44.1106 10.4985H46.3076C46.2049 8.14735 44.2371 6.56677 41.4039 6.56677C38.5707 6.56677 36.4211 8.16315 36.4211 10.4431C36.4211 12.3359 37.5393 13.466 40.1671 14.2207L41.3999 14.5685C43.427 15.1651 44.2173 15.8092 44.2173 16.8643C44.2173 18.105 43.0556 18.9704 41.3881 18.9704C39.5743 18.9704 38.4047 18.1287 38.2546 16.7181H36.018V16.722ZM51.8634 20.8236C51.7567 20.8236 51.65 20.8236 51.5433 20.8157C50.7293 20.7762 50.0733 20.5391 49.5913 20.1203C48.9867 19.5947 48.6785 18.7847 48.6785 17.7138V12.3517H46.9754V10.3286H48.6785V8.04066H50.8676V10.3286H52.7722V12.3517H50.8676V17.6901C50.8676 18.8439 51.6618 18.9783 52.2585 18.9783C52.464 18.9783 52.6062 18.9704 52.7524 18.9585C52.8157 18.9546 52.8789 18.9506 52.9461 18.9467H52.9658V20.7525H52.95C52.95 20.7525 52.4324 20.8236 51.8634 20.8236ZM47.0189 12.3122H48.722V17.7138C48.722 20.1242 50.2591 20.709 51.5472 20.7762C52.1716 20.8078 52.8157 20.7327 52.9302 20.7169V18.9862C52.867 18.9862 52.8117 18.9941 52.7564 18.998C52.6062 19.0099 52.4679 19.0178 52.2585 19.0178C51.9068 19.0178 50.8281 19.0178 50.8281 17.6901V12.3122H52.7327V10.3681H50.8281V8.08017H48.718V10.3681H47.0149V12.3122H47.0189ZM69.1589 19.0257C68.3923 19.0257 67.6376 18.7135 67.0883 18.1722C66.4719 17.5597 66.1439 16.7101 66.1439 15.7144C66.1439 14.7186 66.4719 13.8691 67.0883 13.2566C67.6376 12.7152 68.3923 12.4031 69.1589 12.4031C70.7869 12.4031 71.8775 13.7347 71.8775 15.7144C71.8775 17.6941 70.7869 19.0257 69.1589 19.0257ZM69.1589 12.4386C67.7166 12.4386 66.1834 13.5845 66.1834 15.7104C66.1834 17.8363 67.7166 18.9822 69.1589 18.9822C70.7592 18.9822 71.838 17.6664 71.838 15.7104C71.838 13.7545 70.7632 12.4386 69.1589 12.4386Z" fill="#333"/>
<path d="M60.3923 17.6971C59.9576 18.5901 59.1752 18.9971 58.1044 19.0287C56.5949 18.9892 55.6545 18.1041 55.4609 16.405H62.8501C62.8699 16.1797 62.8857 15.9466 62.8857 15.7056C62.8857 12.3547 60.7479 10.541 58.1084 10.541C55.4688 10.541 53.3311 12.3508 53.3311 15.7056C53.3311 19.0603 55.2831 20.8662 58.1084 20.8662C60.4476 20.8662 61.9176 19.7677 62.5893 17.6971H60.3923ZM58.1044 12.3626C59.5743 12.4022 60.5029 13.1055 60.7321 14.7256H55.4767C55.7059 13.1055 56.6345 12.4022 58.1044 12.3626Z" fill="#333"/>
<path d="M58.1066 20.8861C56.6841 20.8861 55.4868 20.4238 54.6452 19.5506C53.7719 18.6457 53.3096 17.314 53.3096 15.7058C53.3096 14.0976 53.7956 12.7817 54.7163 11.8531C55.5659 10.9957 56.771 10.5215 58.1106 10.5215C59.4501 10.5215 60.6514 10.9957 61.5049 11.8531C62.4256 12.7817 62.9116 14.1134 62.9116 15.7058C62.9116 15.935 62.8998 16.1721 62.876 16.4052V16.425H55.4908C55.6883 18.0727 56.5932 18.9697 58.1106 19.0092C59.2209 18.9776 59.9599 18.5469 60.3787 17.6894V17.6776H62.6192L62.6113 17.7052C61.9237 19.8153 60.4103 20.8861 58.1106 20.8861H58.1066ZM58.1066 10.561C55.2616 10.561 53.3491 12.6276 53.3491 15.7058C53.3491 18.784 55.1707 20.8466 58.1066 20.8466C60.3787 20.8466 61.8763 19.7955 62.5599 17.7171H60.4024C59.9757 18.5824 59.2249 19.0171 58.1027 19.0487C56.5537 19.0053 55.633 18.0925 55.4394 16.4052V16.3815H62.8286C62.8484 16.1523 62.8602 15.9231 62.8602 15.7018C62.8602 12.6276 60.9477 10.557 58.1027 10.557L58.1066 10.561ZM60.7581 14.7456H55.4592V14.7219C55.6804 13.165 56.5458 12.3866 58.1066 12.3431C59.6675 12.3866 60.5328 13.165 60.7541 14.7219V14.7456H60.7581ZM55.5026 14.7061H60.7106C60.4894 13.1848 59.6358 12.4261 58.1066 12.3826C56.5774 12.4261 55.7239 13.1848 55.5026 14.7061Z" fill="#333"/>
<path d="M77.5847 9.22027V13.1045H83.4328V15.2857H77.5847V20.9166H75.3047V7.03906H83.4328V9.22027H77.5847Z" fill="#333"/>
<path d="M93.7321 11V20.9102H91.5904V20.1832C91.0925 20.8233 90.1086 21.2619 88.5162 21.1671C86.9237 21.0723 84.7109 19.8355 84.7109 17.0852V11H86.8526V16.8679C86.8526 18.3734 87.8642 19.1677 89.0733 19.1677C90.2825 19.1677 91.5904 18.3339 91.5904 16.3147V11H93.7321Z" fill="#333"/>
<path d="M95.4355 20.9183V11.008H97.5772V11.7351C98.0751 11.0949 99.059 10.6563 100.651 10.7512C102.244 10.846 104.457 12.0828 104.457 14.833V20.9183H102.315V15.0504C102.315 13.5448 101.303 12.7506 100.094 12.7506C98.8852 12.7506 97.5772 13.5844 97.5772 15.6036V20.9183H95.4355Z" fill="#333"/>
<g clip-path="url(#clip0_9396_9240)">
<path d="M14 0C6.272 0 0 6.272 0 14C0 21.728 6.272 28 14 28C21.728 28 28 21.728 28 14C28 6.272 21.728 0 14 0ZM10.22 22.876H5.11V17.766H10.22V22.876ZM16.548 22.876H11.438V17.766H16.548V22.876ZM16.548 16.562H11.438V11.438H16.548V16.562ZM16.548 10.234H11.438V5.124H16.548V10.234ZM22.876 10.234H17.766V5.11H22.876V10.234Z" fill="#333"/>
<path d="M10.2204 17.7656H5.11035V22.8756H10.2204V17.7656Z" fill="#fff"/>
<path d="M16.5475 17.7656H11.4375V22.8756H16.5475V17.7656Z" fill="#fff"/>
<path d="M16.5475 11.4375H11.4375V16.5615H16.5475V11.4375Z" fill="#fff"/>
<path d="M16.5475 5.125H11.4375V10.235H16.5475V5.125Z" fill="#fff"/>
<path d="M22.8766 5.11133H17.7666V10.2353H22.8766V5.11133Z" fill="#fff"/>
</g>
<defs>
<clipPath id="clip0_9396_9240">
<rect width="28" height="28" fill="#333"/>
</clipPath>
</defs>
</svg>
